<?xml version="1.0" encoding="iso-8859-1"?>
<!-- Generator: Adobe Illustrator 19.0.0, SVG Export Plug-In . SVG Version: 6.00 Build 0)  -->
<svg version="1.1" id="Layer_1" xmlns="http://www.w3.org/2000/svg" xmlns:xlink="http://www.w3.org/1999/xlink" x="0px" y="0px"
	 viewBox="0 0 512 512" style="enable-background:new 0 0 512 512;" xml:space="preserve">
<path style="fill:#781f1f;" d="M408.851,8.786H103.149c-23.741,0-42.988,19.247-42.988,42.988v375.002h391.678V51.774
	C451.839,28.032,432.592,8.786,408.851,8.786z"/>
<path style="fill:#781f1f;" d="M136.599,8.786h-33.45c-23.741,0-42.988,19.247-42.988,42.988v375.002H136.6V8.786H136.599z"/>
<path style="fill:#781f1f;" d="M136.599,350.337c-42.216,0-76.439,34.223-76.439,76.439l0,0c0,42.216,34.223,76.439,76.439,76.439
	h280.441c19.218,0,34.8-15.58,34.8-34.8V350.337H136.599z"/>
<path style="fill:#FFF9F2;" d="M136.6,458.627c-17.563,0-31.852-14.288-31.852-31.852s14.289-31.852,31.852-31.852h315.24v63.703
	H136.6V458.627z"/>
<path style="opacity:0.15;fill:#333333;enable-background:new    ;" d="M451.839,394.924H136.6
	c-17.563,0-31.852,14.288-31.852,31.851H451.84v-31.851H451.839z"/>
<path style="fill:#26150C;" d="M408.852,0H136.599h-33.45C74.601,0,51.375,23.226,51.375,51.774v375.003
	C51.375,473.768,89.607,512,136.6,512h280.439c24.033,0,43.585-19.551,43.585-43.584v-9.787v-63.704v-44.587V51.774
	C460.625,23.226,437.4,0,408.852,0z M68.947,51.774c0-18.859,15.343-34.202,34.202-34.202h24.666v324.43
	c-0.123,0.013-0.244,0.034-0.368,0.048c-13.019,1.399-25.614,5.924-36.647,12.963c-8.364,5.336-15.812,12.114-21.852,19.99V51.774
	H68.947z M443.053,449.843H136.6c-12.719,0-23.067-10.347-23.067-23.065s10.347-23.067,23.067-23.067h306.453L443.053,449.843
	L443.053,449.843z M443.053,386.138H136.6c-22.408,0-40.638,18.231-40.638,40.638c0,22.407,18.231,40.637,40.638,40.637h306.453
	v1.002c0,14.343-11.67,26.013-26.014,26.013H136.6c-37.304,0-67.653-30.349-67.653-67.652c0-32.101,22.482-59.033,52.522-65.926
	c0.98-0.225,1.969-0.429,2.966-0.61c1.31-0.239,2.631-0.44,3.965-0.602c2.69-0.327,5.423-0.514,8.2-0.514h306.453L443.053,386.138
	L443.053,386.138z M443.053,341.552H145.385V17.571h263.467c18.859,0,34.202,15.343,34.202,34.202L443.053,341.552L443.053,341.552z
	"/>
<g>
</g>
<g>
</g>
<g>
</g>
<g>
</g>
<g>
</g>
<g>
</g>
<g>
</g>
<g>
</g>
<g>
</g>
<g>
</g>
<g>
</g>
<g>
</g>
<g>
</g>
<g>
</g>
<g>
</g>
</svg>
